# xmcd
#
# Track frame offsets: 
#        150
#        23906
#        38561
#        60238
#        72424
#        94229
#        107675
#        124824
#        143206
#
# Disc length: 2207 seconds
#
# Revision: 0
# Processed by: cddbd v1.5.2PL0 Copyright (c) Steve Scherf et al.
# Submitted via: ExactAudioCopy v1.0b3
#
DISCID=76089d09
DTITLE=Anna Coogan and JD Foster - The Birth of the Stars
DYEAR=2014
DGENRE=Country
TTITLE0=Silver Claw
TTITLE1=It's Simple (This and That)
TTITLE2=Paper Sails
TTITLE3=At Least We Tried
TTITLE4=The Birth of the Stars
TTITLE5=Simple Little Love
TTITLE6=Help Yourself
TTITLE7=Just To See How It Feels
TTITLE8=May You Have The Wind At Your Back
EXTD=
EXTT0=
EXTT1=
EXTT2=
EXTT3=
EXTT4=
EXTT5=
EXTT6=
EXTT7=
EXTT8=
PLAYORDER=
